<svg width="150" height="35" viewBox="0 0 150 35" fill="none" xmlns="http://www.w3.org/2000/svg">
<g clip-path="url(#clip0_33_138)">
<path fill-rule="evenodd" clip-rule="evenodd" d="M12.7841 24.5C11.6539 24.5 10.57 24.0391 9.77085 23.2186C8.97169 22.3981 8.52273 21.2853 8.52273 20.125V0H0V20.125C0 27.3735 5.72386 33.25 12.7841 33.25H22.1591V24.5H12.7841ZM38.3523 8.75C37.345 8.75 36.3475 8.95369 35.4169 9.34945C34.4863 9.7452 33.6407 10.3253 32.9284 11.0565C32.2162 11.7878 31.6512 12.6559 31.2657 13.6114C30.8802 14.5668 30.6818 15.5908 30.6818 16.625C30.6818 17.6592 30.8802 18.6832 31.2657 19.6386C31.6512 20.5941 32.2162 21.4622 32.9284 22.1935C33.6407 22.9247 34.4863 23.5048 35.4169 23.9006C36.3475 24.2963 37.345 24.5 38.3523 24.5C40.3866 24.5 42.3376 23.6703 43.7761 22.1935C45.2146 20.7166 46.0227 18.7136 46.0227 16.625C46.0227 14.5364 45.2146 12.5334 43.7761 11.0565C42.3376 9.57969 40.3866 8.75 38.3523 8.75ZM22.1591 16.625C22.1591 7.44362 29.4094 0 38.3523 0C47.2952 0 54.5455 7.44362 54.5455 16.625C54.5455 25.8064 47.2952 33.25 38.3523 33.25C29.4094 33.25 22.1591 25.8064 22.1591 16.625ZM130.398 8.75C128.363 8.75 126.412 9.57969 124.974 11.0565C123.535 12.5334 122.727 14.5364 122.727 16.625C122.727 18.7136 123.535 20.7166 124.974 22.1935C126.412 23.6703 128.363 24.5 130.398 24.5C132.432 24.5 134.383 23.6703 135.822 22.1935C137.26 20.7166 138.068 18.7136 138.068 16.625C138.068 14.5364 137.26 12.5334 135.822 11.0565C134.383 9.57969 132.432 8.75 130.398 8.75ZM114.205 16.625C114.205 7.44362 121.455 0 130.398 0C139.341 0 146.591 7.44362 146.591 16.625C146.591 25.8064 139.341 33.25 130.398 33.25C121.455 33.25 114.205 25.8064 114.205 16.625ZM72.4432 0C63.5003 0 56.25 7.44362 56.25 16.625C56.25 25.8064 63.5003 33.25 72.4432 33.25H96.3068C97.9849 33.25 99.6034 32.9875 101.126 32.501L105.682 35L110.598 25.5465C111.846 23.14 112.5 20.4551 112.5 17.7284V16.625C112.5 7.44362 105.25 0 96.3068 0H72.4432ZM103.977 16.625C103.977 14.5364 103.169 12.5334 101.731 11.0565C100.292 9.57969 98.3411 8.75 96.3068 8.75H72.4432C71.4359 8.75 70.4384 8.95369 69.5078 9.34945C68.5772 9.7452 67.7316 10.3253 67.0194 11.0565C66.3071 11.7878 65.7421 12.6559 65.3566 13.6114C64.9711 14.5668 64.7727 15.5908 64.7727 16.625C64.7727 17.6592 64.9711 18.6832 65.3566 19.6386C65.7421 20.5941 66.3071 21.4622 67.0194 22.1935C67.7316 22.9247 68.5772 23.5048 69.5078 23.9006C70.4384 24.2963 71.4359 24.5 72.4432 24.5H96.3068C98.3309 24.5001 100.273 23.6788 101.71 22.2152C103.146 20.7515 103.962 18.7642 103.977 16.6862V16.625Z" fill="white"/>
<path d="M150 2.1875C150 2.76766 149.776 3.32406 149.376 3.7343C148.976 4.14453 148.434 4.375 147.869 4.375C147.304 4.375 146.762 4.14453 146.363 3.7343C145.963 3.32406 145.739 2.76766 145.739 2.1875C145.739 1.60734 145.963 1.05094 146.363 0.640704C146.762 0.230468 147.304 0 147.869 0C148.434 0 148.976 0.230468 149.376 0.640704C149.776 1.05094 150 1.60734 150 2.1875Z" fill="#283841"/>
</g>
<defs>
<clipPath id="clip0_33_138">
<rect width="150" height="35" fill="white"/>
</clipPath>
</defs>
</svg>
