<svg width="1280" height="221" viewBox="0 0 1280 221" fill="none" xmlns="http://www.w3.org/2000/svg">
<rect width="1280" height="221" fill="white"/>
<mask id="path-1-inside-1_19_183" fill="white">
<path d="M101 0H1179V221H101V0Z"/>
</mask>
<path d="M101 2H1179V-2H101V2ZM1179 219H101V223H1179V219Z" fill="black" fill-opacity="0.2" mask="url(#path-1-inside-1_19_183)"/>
<path d="M122.666 108.7C122.666 108.7 127.747 108.323 127.747 102.366C127.747 96.4076 123.59 93.5 118.325 93.5H101V126.794H118.325C118.325 126.794 128.902 127.128 128.902 116.967C128.902 116.967 129.363 108.7 122.666 108.7ZM117.078 99.4177H118.325C118.325 99.4177 120.68 99.4177 120.68 102.882C120.68 106.345 119.295 106.848 117.724 106.848H108.634V99.4177H117.078ZM117.836 120.877H108.634V111.979H118.325C118.325 111.979 121.835 111.933 121.835 116.552C121.835 120.446 119.214 120.847 117.836 120.877ZM143.007 101.971C130.203 101.971 130.214 114.764 130.214 114.764C130.214 114.764 129.336 127.491 143.007 127.491C143.007 127.491 154.399 128.141 154.399 118.637H148.54C148.54 118.637 148.736 122.216 143.202 122.216C143.202 122.216 137.343 122.609 137.343 116.424H154.595C154.595 116.424 156.482 101.971 143.007 101.971ZM137.278 111.979C137.278 111.979 137.994 106.848 143.137 106.848C148.28 106.848 148.215 111.979 148.215 111.979H137.278ZM149.58 99.5614H135.844V95.4615H149.58V99.5614Z" fill="#2D2D2D"/>
<path fill-rule="evenodd" clip-rule="evenodd" d="M300.579 105.578V109.182L309.194 109.178C308.93 111.167 308.259 112.622 307.24 113.641C305.984 114.898 304.023 116.28 300.579 116.28C295.27 116.28 291.118 112.002 291.118 106.692C291.118 101.383 295.27 97.1046 300.579 97.1046C303.444 97.1046 305.536 98.2307 307.079 99.6787L309.623 97.1352C307.47 95.0782 304.605 93.5 300.583 93.5C293.312 93.5 287.199 99.422 287.199 106.692C287.199 113.963 293.312 119.885 300.583 119.885C304.505 119.885 307.466 118.598 309.784 116.185C312.166 113.802 312.906 110.458 312.906 107.754C312.906 106.949 312.844 106.206 312.726 105.578H300.579ZM373.248 119.368V94.4689H369.609V119.368H373.248ZM322.877 119.889C327.573 119.889 331.4 116.284 331.4 111.392C331.4 106.466 327.573 102.896 322.877 102.896C318.18 102.896 314.354 106.466 314.354 111.392C314.354 116.284 318.18 119.889 322.877 119.889ZM322.877 106.244C325.451 106.244 327.669 108.336 327.669 111.392C327.669 114.415 325.451 116.541 322.877 116.541C320.303 116.541 318.085 114.419 318.085 111.392C318.085 108.336 320.303 106.244 322.877 106.244ZM341.264 119.889C345.96 119.889 349.786 116.284 349.786 111.392C349.786 106.466 345.96 102.896 341.264 102.896C336.567 102.896 332.741 106.47 332.741 111.392C332.741 116.284 336.567 119.889 341.264 119.889ZM341.264 106.244C343.838 106.244 346.056 108.336 346.056 111.392C346.056 114.415 343.838 116.541 341.264 116.541C338.689 116.541 336.471 114.419 336.471 111.392C336.471 108.336 338.689 106.244 341.264 106.244ZM367.407 103.413V118.663C367.407 124.937 363.707 127.5 359.332 127.5C355.214 127.5 352.736 124.746 351.801 122.493L355.05 121.141C355.628 122.524 357.045 124.156 359.328 124.156C362.129 124.156 363.864 122.428 363.864 119.176V117.954H363.734C362.898 118.985 361.29 119.885 359.259 119.885C355.011 119.885 351.119 116.185 351.119 111.423C351.119 106.627 355.011 102.896 359.259 102.896C361.286 102.896 362.895 103.796 363.734 104.796H363.864V103.413H367.407ZM364.128 111.423C364.128 108.431 362.132 106.244 359.593 106.244C357.019 106.244 354.862 108.431 354.862 111.423C354.862 114.384 357.019 116.541 359.593 116.541C362.132 116.541 364.128 114.384 364.128 111.423ZM387.429 114.189L390.325 116.119C389.391 117.502 387.138 119.885 383.246 119.885C378.42 119.885 374.815 116.154 374.815 111.389C374.815 106.336 378.451 102.892 382.829 102.892C387.238 102.892 389.394 106.401 390.099 108.297L390.486 109.263L379.129 113.967C379.998 115.671 381.35 116.541 383.246 116.541C385.146 116.541 386.464 115.606 387.429 114.189ZM378.516 111.132L386.108 107.979C385.69 106.918 384.434 106.179 382.955 106.179C381.059 106.179 378.42 107.853 378.516 111.132Z" fill="#2D2D2D"/>
<path fill-rule="evenodd" clip-rule="evenodd" d="M550.961 87.11C548.984 87.3005 546.663 88.4455 545.035 90.0335C543.293 91.7325 542.116 94.0941 541.91 96.3041C541.878 96.6435 541.892 97.4511 541.934 97.6767L541.963 97.8291L542.159 97.857C542.445 97.8976 543.15 97.8732 543.512 97.8101C544.893 97.5693 546.331 96.8895 547.617 95.8701C548.005 95.5619 548.724 94.8345 549.078 94.3912C549.593 93.746 550.03 93.0565 550.383 92.333C550.897 91.2792 551.202 90.2824 551.368 89.1084C551.417 88.7692 551.439 87.712 551.403 87.439C551.355 87.0621 551.364 87.0841 551.256 87.0876C551.204 87.0893 551.071 87.0994 550.961 87.11ZM550.075 98.4206C549.543 98.452 548.821 98.5684 548.188 98.7247C547.356 98.9305 546.731 99.1429 545.261 99.7196C544.069 100.187 543.699 100.318 543.219 100.439C542.611 100.593 542.077 100.589 541.419 100.426C540.953 100.311 540.613 100.19 539.388 99.7042C538.21 99.2369 537.78 99.0814 537.223 98.9201C535.865 98.5274 534.781 98.44 533.415 98.613C531.942 98.7996 530.516 99.2879 529.23 100.047C526.729 101.522 524.861 103.904 523.855 106.9C523.112 109.113 522.852 111.622 523.08 114.379C523.288 116.903 523.905 119.583 524.862 122.12C525.477 123.749 526.308 125.464 527.133 126.808C527.888 128.037 529.409 130.1 530.354 131.176C532.111 133.178 533.741 134.031 535.562 133.901C536.521 133.833 537.129 133.662 538.606 133.046C539.558 132.649 539.956 132.5 540.448 132.357C541.937 131.927 543.62 131.889 545.078 132.253C545.688 132.406 546.039 132.533 547.079 132.977C548.369 133.528 548.863 133.684 549.675 133.795C550.035 133.845 550.808 133.864 551.116 133.831C552.535 133.679 553.83 132.974 555.118 131.653C555.904 130.847 556.7 129.833 557.844 128.18C559.104 126.358 560.227 124.133 560.925 122.074C561.137 121.449 561.139 121.443 561.071 121.422C560.841 121.35 559.96 120.867 559.497 120.558C556.854 118.792 555.258 116.247 554.914 113.247C554.627 110.751 555.177 108.378 556.513 106.352C557.287 105.177 558.405 104.058 559.606 103.255C559.76 103.152 559.886 103.057 559.886 103.043C559.886 103.005 559.572 102.585 559.299 102.259C557.372 99.9532 554.648 98.6285 551.424 98.4284C551.077 98.4068 550.377 98.4028 550.075 98.4206Z" fill="#2D2D2D"/>
<path d="M832.417 120.34C826.61 130.19 817.409 127.332 814.644 125.093C813.468 125.893 811.405 127.642 808.656 127.437C802.799 127.018 800.707 118.65 800.707 118.65C799.839 118.989 798.925 119.193 797.995 119.257C797.995 121.713 795.861 127.575 790.138 127.499C783.715 127.416 782.406 117.843 782.406 117.843C782.406 117.843 781.765 118.73 779.334 119.612C779.456 117.725 779.368 127.211 771.669 127.349C765.581 127.457 763.937 117.692 763.937 117.692C763.066 118.473 761.988 118.986 760.833 119.169C760.962 117.253 760.753 127.378 753.05 127.344C747.845 127.324 746.067 121.328 746.205 120.495C746.381 119.437 744.448 127.491 739.389 127.365C737.297 127.303 735.749 125.792 734.787 123.78C733.481 125.273 731.582 127.365 729.456 127.365C725.636 127.365 723.954 124.169 724.239 115.048C724.264 113.964 724.185 113.541 723.109 113.374C722.465 113.265 721.804 113.064 721.101 112.956C720.875 113.704 718.975 127.119 712.436 127.374C710.243 127.457 709.042 125.558 708.055 124.148C706.545 126.148 704.549 127.437 701.712 127.437C696.9 127.437 693.624 123.545 693.624 118.75C693.624 113.956 696.9 110.064 701.712 110.064C702.35 110.063 702.983 110.181 703.578 110.412C701.98 95.8595 705.754 93.5876 709.055 93.5876C712.227 93.5876 717.641 100.943 710.022 119.608C711.695 125.173 715.36 124.859 717.113 113.403C717.469 111.073 716.515 107.931 718.001 107.491C720.712 106.688 721 109.094 722.272 109.495C723.616 109.914 724.402 109.876 725.691 110.148C727.896 110.566 728.758 111.763 728.49 114.403C728.168 117.75 727.603 122.604 729.327 123.19C730.582 123.608 732.833 121.047 733.23 119.637C733.547 118.692 733.72 117.705 733.745 116.709C733.725 114.864 733.892 113.022 734.243 111.211C734.406 110.566 734.586 110.135 735.318 110.106C735.921 110.106 737.021 109.91 737.502 110.286C738.147 110.771 738.067 111.265 737.992 112.558C737.243 131.022 743.013 121.805 744.741 114.424C744.126 106.081 744.548 93.7299 749.762 93.5039C752.481 93.3951 753.682 95.575 753.816 97.2026C754.188 101.805 752.096 109.403 749.339 114.52C747.766 124.98 756.226 127.026 757.577 118.704C755.364 117.65 752.975 113.391 754.916 111.315C756.008 110.152 760.556 111.826 760.632 115.474C762.862 114.876 763.142 113.617 763.192 113.826C762.577 105.483 763.146 93.7424 768.376 93.5165C771.096 93.4077 772.297 95.5876 772.431 97.2152C772.803 101.818 770.711 109.416 767.954 114.533C766.381 124.993 774.841 127.039 776.192 118.717C774.552 118.399 771.092 113.868 773.088 111.328C774.155 109.968 778.686 112.792 779.192 115.608C781.334 115.002 781.627 113.784 781.657 113.989C781.042 105.646 781.611 93.9056 786.841 93.6796C789.56 93.5709 790.761 95.7507 790.895 97.3783C791.267 101.981 789.175 109.579 786.418 114.696C784.845 125.156 793.305 127.202 794.656 118.88C792.405 118.504 789.217 113.721 791.778 111.274C792.807 110.294 796.74 112.834 797.661 115.73C798.436 115.692 799.198 115.511 799.907 115.194C797.866 105.399 799.384 93.642 805.012 93.5458C808.054 93.4914 811.024 95.1901 809.719 104.508C808.464 113.399 803.995 117.131 804.008 117.19C804.267 118.257 806.564 127.169 812.351 122.466C812.013 121.761 811.756 121.02 811.585 120.257C810.627 115.37 812.51 109.847 817.627 108.96C820.556 108.449 823.321 109.876 823.761 113.094C824.48 118.361 819.723 122.177 817.903 123.006C817.091 122.545 825.246 127.775 830.087 117.294C830.367 116.696 830.706 116.746 831.145 117.056C831.472 117.257 833.238 118.926 832.417 120.34ZM705.222 117.458C704.976 116.721 704.469 115.098 704.294 114.395C703.31 113.558 702.62 113.399 701.365 113.399C698.557 113.399 696.905 115.993 696.905 118.792C696.905 121.591 698.704 124.186 701.507 124.186C703.938 124.186 705.791 122.512 706.356 120.19C705.921 119.294 705.528 118.458 705.202 117.458H705.222ZM708.988 97.4411C707.017 97.4411 706.348 102.148 706.478 106.161C706.601 108.918 707.147 111.64 708.097 114.232C708.227 114.407 708.201 114.294 708.319 114.479C711.733 106.972 710.314 97.4369 708.976 97.4369L708.988 97.4411ZM750.059 97.5875C747.511 97.2947 747.527 107.914 747.841 110.294C749.163 108.177 751.465 98.1608 750.059 97.5875ZM768.673 97.5875C766.125 97.2947 766.142 107.914 766.456 110.294C767.77 108.177 770.071 98.1566 768.665 97.5875H768.673ZM787.142 97.734C784.594 97.4411 784.611 108.06 784.924 110.445C786.246 108.328 788.548 98.3114 787.142 97.734ZM805.313 96.9641C801.343 97.7633 802.267 111.006 802.87 113.328C807.547 106.901 807.644 96.7256 805.313 96.9641ZM820.2 113.512C820.069 113.124 819.807 112.794 819.459 112.578C819.11 112.362 818.698 112.273 818.292 112.328C816.296 112.6 814.363 115.085 815.112 118.863C815.23 119.417 815.425 119.953 815.69 120.453C820.141 117.462 820.518 115.11 820.187 113.512H820.2ZM736.101 107.19C735.385 107.188 734.696 106.921 734.166 106.439C733.637 105.958 733.306 105.296 733.237 104.584C733.168 103.872 733.367 103.159 733.794 102.585C734.222 102.011 734.847 101.617 735.549 101.479C736.252 101.34 736.98 101.468 737.593 101.837C738.206 102.206 738.66 102.79 738.867 103.475C739.073 104.16 739.018 104.898 738.71 105.544C738.403 106.191 737.867 106.7 737.205 106.972C736.855 107.117 736.48 107.191 736.101 107.19Z" fill="#2D2D2D"/>
<path fill-rule="evenodd" clip-rule="evenodd" d="M1139.11 105.262V93.6151L1139.11 93.6125C1139.48 93.4947 1144.27 93.4581 1144.99 93.5575C1145.09 93.9135 1145.11 126.555 1145 127.045H1139.13C1139.12 126.667 1139.12 126.292 1139.12 125.907V125.906C1139.12 125.544 1139.12 125.173 1139.12 124.783L1139.07 124.824L1139.05 124.849L1138.99 124.898C1138.93 124.954 1138.89 124.996 1138.85 125.042C1137.48 126.589 1135.76 127.398 1133.7 127.487C1131.71 127.573 1129.8 127.241 1128.03 126.304C1125.9 125.184 1124.5 123.43 1123.62 121.229C1122.94 119.525 1122.65 117.743 1122.59 115.921C1122.52 113.794 1122.74 111.697 1123.44 109.672C1124.15 107.625 1125.29 105.879 1127.09 104.607C1128.34 103.715 1129.74 103.17 1131.25 102.956C1131.95 102.859 1132.65 102.773 1133.34 102.783C1135.48 102.82 1137.36 103.524 1138.89 105.055C1138.92 105.094 1138.96 105.13 1139.03 105.19L1139.03 105.192L1139.11 105.262ZM1136.27 121.928C1137.59 121.344 1138.45 120.308 1139.01 119.01L1139.01 119.012C1139.55 117.767 1139.72 116.45 1139.74 114.793C1139.74 114.699 1139.73 114.583 1139.72 114.451V114.451L1139.72 114.449V114.449L1139.72 114.448V114.447L1139.72 114.446C1139.69 114.079 1139.65 113.591 1139.57 113.111C1139.34 111.708 1138.85 110.415 1137.86 109.352C1136.18 107.56 1133.43 107.279 1131.44 108.716C1130.4 109.46 1129.75 110.48 1129.35 111.669C1128.74 113.503 1128.69 115.38 1129.03 117.269C1129.23 118.361 1129.62 119.379 1130.28 120.282C1131.68 122.195 1134.12 122.875 1136.27 121.928ZM1011.68 119.369C1013.07 114.001 1014.47 108.63 1015.87 103.239V103.236L1017.33 103.195C1018.71 103.156 1020.09 103.118 1021.51 103.079L1021.09 104.392C1018.69 111.919 1016.3 119.403 1013.92 126.888H1008.73C1007.38 121.859 1006.04 116.838 1004.69 111.816L1004.69 111.813C1004.66 111.815 1004.63 111.818 1004.59 111.818L1003.64 115.418C1002.61 119.29 1001.58 123.163 1000.55 127.047H995.372L994.72 125.001C992.414 117.767 990.105 110.525 987.788 103.252H993.726C995.121 108.625 996.516 113.995 997.911 119.366C997.922 119.367 997.934 119.368 997.945 119.369C997.968 119.371 997.991 119.374 998.013 119.374C998.683 116.698 999.353 114.021 1000.02 111.342L1000.03 111.302C1000.71 108.623 1001.38 105.941 1002.05 103.254H1007.54C1008.13 105.622 1008.72 107.988 1009.32 110.353L1009.33 110.393L1009.33 110.423L1009.34 110.425L1009.34 110.426C1010.08 113.406 1010.83 116.384 1011.57 119.363C1011.61 119.366 1011.64 119.369 1011.68 119.369ZM1043.24 105.852L1043.24 105.869C1043.01 106.758 1042.78 107.646 1042.55 108.533C1042.4 109.126 1042.25 109.718 1042.1 110.311L1042.1 110.314L1042.1 110.314L1042.1 110.314L1042.1 110.315L1042.1 110.315C1041.78 111.537 1041.47 112.759 1041.15 113.979C1041.05 114.376 1040.95 114.773 1040.84 115.17L1040.84 115.172L1040.84 115.173C1040.48 116.579 1040.12 117.986 1039.66 119.371C1038.99 116.659 1038.32 113.946 1037.64 111.233L1037.63 111.186C1036.96 108.491 1036.29 105.795 1035.62 103.1H1030.14C1028.83 108.551 1027.54 113.977 1026.24 119.405C1026.21 119.407 1026.18 119.41 1026.14 119.415C1025.6 117.873 1025.06 116.33 1024.52 114.786L1024.51 114.767C1023.98 113.232 1023.44 111.697 1022.9 110.163H1022.8C1022.75 110.287 1022.7 110.41 1022.65 110.532L1022.65 110.533L1022.65 110.533L1022.65 110.533L1022.65 110.533L1022.65 110.533L1022.65 110.533L1022.65 110.533L1022.65 110.533C1022.54 110.803 1022.42 111.073 1022.34 111.352C1022.04 112.342 1021.75 113.335 1021.46 114.328L1021.46 114.33L1021.46 114.33C1021.2 115.212 1020.94 116.094 1020.68 116.973C1020.6 117.23 1020.61 117.458 1020.69 117.714C1021.38 119.904 1022.06 122.097 1022.75 124.29L1022.75 124.291L1022.75 124.292L1022.75 124.299C1023 125.09 1023.25 125.882 1023.49 126.673C1023.53 126.769 1023.57 126.862 1023.6 126.95L1023.6 126.95L1023.63 127.009L1023.64 127.042H1028.8C1029.84 123.123 1030.87 119.217 1031.91 115.315L1032.84 111.791C1032.86 111.791 1032.88 111.794 1032.9 111.796L1032.91 111.797L1032.93 111.799C1033.68 114.641 1034.44 117.482 1035.19 120.322C1035.78 122.567 1036.38 124.812 1036.98 127.057H1042.26C1042.58 126.369 1049.81 103.432 1049.82 103.087H1043.96H1043.95C1043.72 104.01 1043.48 104.931 1043.24 105.852ZM1071.03 108.195C1071.18 107.586 1071.34 106.978 1071.49 106.371V106.379C1071.63 105.842 1071.77 105.306 1071.91 104.769L1071.91 104.755C1072.06 104.204 1072.2 103.652 1072.34 103.097H1078.26C1078.24 103.16 1078.22 103.221 1078.21 103.28C1078.18 103.394 1078.15 103.501 1078.12 103.605C1077.35 105.977 1076.59 108.35 1075.82 110.724C1075.05 113.097 1074.29 115.47 1073.52 117.842C1073.05 119.3 1072.58 120.758 1072.1 122.217C1071.63 123.675 1071.16 125.134 1070.69 126.592L1070.67 126.654L1070.64 126.732L1070.64 126.733C1070.59 126.907 1070.56 126.995 1070.5 127.039C1070.44 127.083 1070.35 127.083 1070.16 127.081C1070.12 127.081 1070.09 127.081 1070.04 127.081H1065.74C1065.67 127.081 1065.6 127.077 1065.52 127.071C1065.47 127.069 1065.42 127.065 1065.36 127.063C1064.01 121.975 1062.66 116.887 1061.31 111.799L1061.22 111.794C1060.39 114.941 1059.55 118.088 1058.72 121.24C1058.21 123.174 1057.69 125.11 1057.18 127.05H1052L1051.88 126.709L1051.88 126.707L1051.88 126.696C1051.65 126.023 1051.43 125.357 1051.21 124.691C1050.99 124.018 1050.77 123.344 1050.55 122.671L1050.55 122.665C1050.01 121.032 1049.48 119.398 1048.93 117.766C1048.84 117.481 1048.83 117.227 1048.93 116.939C1049.23 116.01 1049.53 115.079 1049.82 114.148C1050.12 113.217 1050.41 112.286 1050.72 111.357C1050.85 110.951 1051.03 110.564 1051.29 110.163L1054.53 119.42L1054.54 119.42C1054.57 119.417 1054.6 119.415 1054.63 119.415C1055.38 116.265 1056.13 113.116 1056.88 109.965L1056.9 109.895C1057.44 107.628 1057.98 105.361 1058.53 103.092H1064.01L1068.04 119.36C1068.37 118.532 1068.59 117.677 1068.8 116.824C1068.86 116.601 1068.92 116.379 1068.98 116.157C1069.16 115.444 1069.35 114.73 1069.53 114.016C1069.63 113.637 1069.73 113.258 1069.82 112.88C1070.1 111.804 1070.38 110.729 1070.65 109.65C1070.78 109.165 1070.9 108.68 1071.03 108.195ZM984.775 109.038C983.998 106.18 982.229 104.254 979.387 103.356C978.429 103.053 977.442 102.911 976.44 102.828C974.801 102.689 973.197 102.809 971.637 103.338C969.023 104.225 967.177 105.913 966.301 108.575C966.24 108.761 966.196 108.953 966.153 109.143C966.131 109.239 966.11 109.334 966.086 109.428C966.845 109.69 970.622 110.48 970.967 110.452C970.991 110.4 971.015 110.348 971.038 110.296L971.039 110.295L971.039 110.295L971.039 110.295L971.039 110.295L971.039 110.295L971.039 110.295C971.098 110.164 971.159 110.03 971.226 109.899C971.689 109.017 972.373 108.374 973.333 108.073C974.718 107.638 976.099 107.698 977.445 108.222C978.363 108.58 978.971 109.271 979.146 110.25C979.225 110.7 979.251 111.16 979.277 111.617C979.288 111.821 979.3 112.025 979.316 112.226C979.265 112.25 979.23 112.268 979.205 112.281C979.166 112.301 979.15 112.31 979.133 112.31C978.958 112.318 978.782 112.32 978.607 112.323L978.607 112.323L978.607 112.323C978.078 112.332 977.55 112.328 977.021 112.324C975.704 112.313 974.388 112.303 973.077 112.496C971.504 112.726 970.009 113.181 968.651 114.024C967.094 114.99 965.971 116.304 965.442 118.083C965.092 119.266 965.065 120.462 965.296 121.669C965.806 124.359 967.324 126.173 969.96 127.003C971.289 127.421 972.65 127.458 974.019 127.259C976.241 126.937 978.062 125.89 979.504 124.179C979.545 124.131 979.57 124.069 979.595 124.008C979.605 123.981 979.616 123.955 979.627 123.93C979.669 123.956 979.714 123.982 979.756 124.006C979.951 124.961 980.147 125.914 980.343 126.866L980.343 126.867L980.345 126.874H985.199L985.204 126.805L985.208 126.743C985.216 126.626 985.223 126.523 985.223 126.419C985.223 124.902 985.223 123.385 985.224 121.868V121.868V121.868V121.867V121.867V121.867C985.224 118.834 985.225 115.801 985.223 112.768C985.223 111.509 985.108 110.258 984.775 109.036V109.038ZM978.157 120.491C977.293 121.467 976.183 122.012 974.911 122.242C974.315 122.349 973.715 122.41 973.118 122.237C972.035 121.923 971.357 120.965 971.415 119.834C971.485 118.455 972.328 117.471 973.72 117.183C974.105 117.102 974.506 117.068 974.901 117.065C975.791 117.057 976.68 117.059 977.57 117.062C978.015 117.064 978.46 117.065 978.905 117.065C978.977 117.065 979.049 117.072 979.128 117.08C979.168 117.084 979.209 117.088 979.253 117.091C979.353 118.395 979.01 119.528 978.159 120.494L978.157 120.491ZM1094.4 103.55C1096.99 104.542 1098.55 106.45 1099.25 109.098L1099.25 109.096C1099.56 110.24 1099.68 111.409 1099.68 112.59V126.432C1099.68 126.534 1099.67 126.638 1099.66 126.754L1099.66 126.755L1099.66 126.757C1099.66 126.797 1099.66 126.839 1099.65 126.882H1094.81C1094.61 125.906 1094.41 124.948 1094.21 123.927C1094.19 123.945 1094.17 123.961 1094.16 123.976C1094.13 124.003 1094.11 124.027 1094.09 124.048L1094.09 124.049L1094.09 124.05C1094.04 124.103 1094 124.143 1093.96 124.187C1092.52 125.903 1090.69 126.942 1088.47 127.259C1086.74 127.508 1085.04 127.382 1083.44 126.623C1081.38 125.65 1080.21 123.993 1079.79 121.794C1079.51 120.368 1079.55 118.942 1080.08 117.565C1080.63 116.12 1081.61 115.013 1082.89 114.165C1084.11 113.357 1085.47 112.872 1086.9 112.6C1088 112.393 1089.11 112.318 1090.22 112.323C1090.99 112.326 1091.74 112.325 1092.52 112.324H1092.52H1092.52H1092.52H1092.52C1092.91 112.323 1093.31 112.323 1093.71 112.323L1093.71 112.216C1093.76 111.214 1093.8 110.242 1093.26 109.35C1092.89 108.732 1092.34 108.345 1091.67 108.122C1090.53 107.743 1089.36 107.685 1088.19 107.949C1087 108.219 1086.14 108.939 1085.62 110.041C1085.6 110.085 1085.58 110.131 1085.56 110.177C1085.54 110.204 1085.53 110.231 1085.52 110.258C1085.49 110.329 1085.45 110.399 1085.39 110.525C1084.51 110.333 1083.63 110.141 1082.75 109.949L1082.75 109.948L1082.74 109.947L1082.74 109.946L1082.73 109.944C1082.01 109.787 1081.28 109.629 1080.55 109.47C1080.67 108.685 1080.93 107.989 1081.27 107.329C1082.38 105.228 1084.14 103.924 1086.38 103.246C1087.86 102.799 1089.37 102.699 1090.91 102.828C1092.11 102.93 1093.28 103.121 1094.4 103.55ZM1088.24 122.336C1089.15 122.357 1090.01 122.166 1090.83 121.794H1090.83C1092.81 120.899 1093.87 119.169 1093.71 117.12C1093.69 117.115 1093.68 117.109 1093.67 117.104L1093.65 117.096C1093.63 117.084 1093.61 117.076 1093.59 117.076C1093.14 117.076 1092.7 117.075 1092.25 117.073L1092.25 117.073H1092.25C1091.15 117.069 1090.06 117.065 1088.96 117.097C1088.23 117.118 1087.52 117.306 1086.89 117.719C1086.01 118.295 1085.65 119.143 1085.75 120.135C1085.87 121.368 1087 122.31 1088.24 122.336ZM1165.44 114.775C1164.42 113.959 1163.25 113.419 1162.04 112.975C1161.56 112.799 1161.07 112.632 1160.59 112.465L1160.59 112.465C1159.9 112.228 1159.21 111.992 1158.54 111.731C1158.09 111.556 1157.64 111.302 1157.28 110.988C1156.26 110.114 1156.43 108.64 1157.59 107.978C1158.06 107.711 1158.58 107.599 1159.11 107.649C1160.5 107.779 1161.66 108.376 1162.57 109.447C1162.62 109.503 1162.66 109.559 1162.72 109.622L1162.72 109.628L1162.73 109.629L1162.84 109.755C1163.42 109.223 1164 108.695 1164.58 108.167L1164.58 108.164L1164.6 108.147C1165.17 107.626 1165.74 107.104 1166.32 106.578C1166.31 106.565 1166.3 106.551 1166.29 106.538C1166.28 106.512 1166.26 106.486 1166.24 106.461L1166.19 106.386C1166.12 106.276 1166.06 106.176 1165.99 106.078C1164.16 103.521 1160.41 102.15 1157.87 102.548C1155.58 102.909 1153.73 103.943 1152.46 105.905C1150.78 108.512 1150.85 112.917 1154.67 115.024C1155.49 115.479 1156.38 115.842 1157.25 116.201L1157.26 116.207C1157.72 116.393 1158.18 116.562 1158.64 116.731C1159.18 116.928 1159.72 117.124 1160.24 117.348C1160.72 117.549 1161.17 117.843 1161.58 118.162C1162.09 118.562 1162.26 119.138 1162.19 119.784C1162.06 120.868 1161.46 121.569 1160.42 121.857C1158.83 122.297 1157.4 121.972 1156.16 120.886C1155.46 120.279 1154.98 119.512 1154.59 118.688C1154.52 118.544 1154.45 118.399 1154.37 118.238L1154.31 118.104L1152.74 118.963C1151.7 119.533 1150.66 120.103 1149.59 120.687C1149.65 120.806 1149.7 120.921 1149.75 121.032C1149.85 121.258 1149.94 121.471 1150.05 121.674C1152.28 125.773 1156.82 127.874 1161.46 126.778C1165.1 125.914 1167.42 123.043 1167.53 119.366C1167.59 117.494 1166.91 115.956 1165.44 114.778V114.775ZM1110.91 103.126V106.795V106.798C1113.38 103.315 1116.6 102.061 1120.79 103.215C1120.55 104.473 1120.3 105.71 1120.07 106.943L1120.06 106.976L1120.05 106.996L1119.73 108.662C1119.58 108.598 1119.43 108.531 1119.28 108.465L1119.28 108.464L1119.28 108.464C1118.97 108.323 1118.68 108.19 1118.37 108.117C1116.58 107.698 1114.99 108.125 1113.64 109.36C1112.65 110.266 1112.08 111.431 1111.68 112.689C1111.13 114.385 1110.94 116.136 1110.93 117.908C1110.91 119.929 1110.91 121.948 1110.92 123.968V123.968V123.973C1110.92 124.751 1110.92 125.529 1110.92 126.307V126.869C1109.71 126.964 1108.51 126.984 1107.3 127.004C1106.54 127.017 1105.78 127.029 1105 127.06V103.16C1105.34 103.05 1110.22 103.019 1110.91 103.126ZM1179 123.25L1179 123.255L1179 123.255C1179 123.179 1179 123.103 1179 123.028L1179 123.027L1179 123.024C1179 122.875 1179 122.725 1179 122.574L1179 122.574C1179 122.726 1179 122.876 1179 123.027" fill="#2D2D2D"/>
</svg>
